<mxfile host="app.diagrams.net" agent="Mozilla/5.0 (X11; Linux x86_64) AppleWebKit/537.36 (KHTML, like Gecko) Chrome/133.0.0.0 Safari/537.36" version="26.2.14">
  <diagram name="Page-1" id="4pti6fY79r4CVNWM3kQW">
    <mxGraphModel dx="4074" dy="2357" grid="1" gridSize="10" guides="1" tooltips="1" connect="1" arrows="1" fold="1" page="1" pageScale="1" pageWidth="3300" pageHeight="2339" background="light-dark(#FFFFFF,#FFFFFF)" math="0" shadow="0">
      <root>
        <mxCell id="0" />
        <mxCell id="1" parent="0" />
        <mxCell id="uiIYIumYD0wpSOT2Yrbh-1" value="" style="sketch=0;verticalLabelPosition=bottom;sketch=0;aspect=fixed;html=1;verticalAlign=top;strokeColor=none;fillColor=light-dark(#000000,#000000);align=center;outlineConnect=0;pointerEvents=1;shape=mxgraph.citrix2.users;" parent="1" vertex="1">
          <mxGeometry x="2500" y="10.000000000000043" width="186.95" height="98.85" as="geometry" />
        </mxCell>
        <mxCell id="uiIYIumYD0wpSOT2Yrbh-2" value="" style="sketch=0;points=[[0,0,0],[0.25,0,0],[0.5,0,0],[0.75,0,0],[1,0,0],[0,1,0],[0.25,1,0],[0.5,1,0],[0.75,1,0],[1,1,0],[0,0.25,0],[0,0.5,0],[0,0.75,0],[1,0.25,0],[1,0.5,0],[1,0.75,0]];outlineConnect=0;fontColor=#232F3E;fillColor=#8C4FFF;strokeColor=light-dark(#FFFFFF,#FFFFFF);dashed=0;verticalLabelPosition=bottom;verticalAlign=top;align=center;html=1;fontSize=12;fontStyle=0;aspect=fixed;shape=mxgraph.aws4.resourceIcon;resIcon=mxgraph.aws4.global_accelerator;" parent="1" vertex="1">
          <mxGeometry x="1610" y="250" width="160" height="160" as="geometry" />
        </mxCell>
        <mxCell id="uiIYIumYD0wpSOT2Yrbh-4" value="&lt;b&gt;&lt;font style=&quot;font-size: 20px; color: light-dark(rgb(55, 118, 144), rgb(55, 118, 144));&quot;&gt;Region - eu-west-1 (Ireland)&lt;/font&gt;&lt;/b&gt;" style="points=[[0,0],[0.25,0],[0.5,0],[0.75,0],[1,0],[1,0.25],[1,0.5],[1,0.75],[1,1],[0.75,1],[0.5,1],[0.25,1],[0,1],[0,0.75],[0,0.5],[0,0.25]];outlineConnect=0;gradientColor=none;html=1;whiteSpace=wrap;fontSize=12;fontStyle=0;container=1;pointerEvents=0;collapsible=0;recursiveResize=0;shape=mxgraph.aws4.group;grIcon=mxgraph.aws4.group_region;strokeColor=light-dark(#377690,#377690);fillColor=none;verticalAlign=top;align=left;spacingLeft=30;fontColor=#147EBA;dashed=1;strokeWidth=7;" parent="1" vertex="1">
          <mxGeometry x="10" y="370" width="1450" height="1860" as="geometry" />
        </mxCell>
        <mxCell id="uiIYIumYD0wpSOT2Yrbh-6" value="&lt;b&gt;&lt;font style=&quot;font-size: 20px; color: light-dark(rgb(0, 0, 0), rgb(177, 125, 255));&quot;&gt;VPC&lt;/font&gt;&lt;/b&gt;" style="points=[[0,0],[0.25,0],[0.5,0],[0.75,0],[1,0],[1,0.25],[1,0.5],[1,0.75],[1,1],[0.75,1],[0.5,1],[0.25,1],[0,1],[0,0.75],[0,0.5],[0,0.25]];outlineConnect=0;gradientColor=none;html=1;whiteSpace=wrap;fontSize=12;fontStyle=0;container=1;pointerEvents=0;collapsible=0;recursiveResize=0;shape=mxgraph.aws4.group;grIcon=mxgraph.aws4.group_vpc2;strokeColor=#8C4FFF;fillColor=none;verticalAlign=top;align=left;spacingLeft=30;fontColor=#AAB7B8;dashed=0;strokeWidth=7;" parent="uiIYIumYD0wpSOT2Yrbh-4" vertex="1">
          <mxGeometry x="40" y="50" width="1200" height="1760" as="geometry" />
        </mxCell>
        <mxCell id="uiIYIumYD0wpSOT2Yrbh-7" value="&lt;b style=&quot;forced-color-adjust: none; font-family: Helvetica; font-size: 12px; font-style: normal; font-variant-ligatures: normal; font-variant-caps: normal; letter-spacing: normal; orphans: 2; text-align: left; text-indent: 0px; text-transform: none; widows: 2; word-spacing: 0px; -webkit-text-stroke-width: 0px; white-space: normal; text-decoration-thickness: initial; text-decoration-style: initial; text-decoration-color: initial; cursor: crosshair !important; box-shadow: none !important;&quot;&gt;&lt;font style=&quot;forced-color-adjust: none; font-size: 20px; color: light-dark(rgb(52, 156, 214), rgb(52, 156, 214)); cursor: crosshair !important; box-shadow: none !important;&quot;&gt;Availability Zone (eu-west-1a)&lt;/font&gt;&lt;/b&gt;" style="fillColor=none;strokeColor=#147EBA;dashed=1;verticalAlign=top;fontStyle=0;fontColor=#147EBA;whiteSpace=wrap;html=1;strokeWidth=7;" parent="uiIYIumYD0wpSOT2Yrbh-6" vertex="1">
          <mxGeometry x="28" y="45" width="1120" height="1335" as="geometry" />
        </mxCell>
        <mxCell id="uiIYIumYD0wpSOT2Yrbh-10" value="&lt;b&gt;&lt;font style=&quot;font-size: 20px;&quot;&gt;Public subnet&lt;/font&gt;&lt;/b&gt;" style="points=[[0,0],[0.25,0],[0.5,0],[0.75,0],[1,0],[1,0.25],[1,0.5],[1,0.75],[1,1],[0.75,1],[0.5,1],[0.25,1],[0,1],[0,0.75],[0,0.5],[0,0.25]];outlineConnect=0;gradientColor=none;html=1;whiteSpace=wrap;fontSize=12;fontStyle=0;container=1;pointerEvents=0;collapsible=0;recursiveResize=0;shape=mxgraph.aws4.group;grIcon=mxgraph.aws4.group_security_group;grStroke=0;strokeColor=#7AA116;fillColor=light-dark(#AAFFAA,#AAFFAA);verticalAlign=top;align=left;spacingLeft=30;fontColor=#248814;dashed=0;opacity=80;" parent="uiIYIumYD0wpSOT2Yrbh-6" vertex="1">
          <mxGeometry x="60" y="85" width="1060" height="405" as="geometry" />
        </mxCell>
        <mxCell id="uiIYIumYD0wpSOT2Yrbh-13" value="&lt;b&gt;&lt;font style=&quot;font-size: 20px;&quot;&gt;Private subnet&lt;/font&gt;&lt;/b&gt;" style="points=[[0,0],[0.25,0],[0.5,0],[0.75,0],[1,0],[1,0.25],[1,0.5],[1,0.75],[1,1],[0.75,1],[0.5,1],[0.25,1],[0,1],[0,0.75],[0,0.5],[0,0.25]];outlineConnect=0;gradientColor=none;html=1;whiteSpace=wrap;fontSize=12;fontStyle=0;container=1;pointerEvents=0;collapsible=0;recursiveResize=0;shape=mxgraph.aws4.group;grIcon=mxgraph.aws4.group_security_group;grStroke=0;strokeColor=light-dark(#3399FF,#3399FF);fillColor=light-dark(#E6F6F7,#3399FF);verticalAlign=top;align=left;spacingLeft=30;fontColor=#147EBA;dashed=0;opacity=40;strokeWidth=7;" parent="uiIYIumYD0wpSOT2Yrbh-6" vertex="1">
          <mxGeometry x="60" y="509" width="1060" height="851" as="geometry" />
        </mxCell>
        <mxCell id="uiIYIumYD0wpSOT2Yrbh-19" value="&lt;font style=&quot;font-size: 22px;&quot;&gt;Auto Scaling group&lt;/font&gt;" style="points=[[0,0],[0.25,0],[0.5,0],[0.75,0],[1,0],[1,0.25],[1,0.5],[1,0.75],[1,1],[0.75,1],[0.5,1],[0.25,1],[0,1],[0,0.75],[0,0.5],[0,0.25]];outlineConnect=0;gradientColor=none;html=1;whiteSpace=wrap;fontSize=12;fontStyle=0;container=1;pointerEvents=0;collapsible=0;recursiveResize=0;shape=mxgraph.aws4.groupCenter;grIcon=mxgraph.aws4.group_auto_scaling_group;grStroke=1;strokeColor=#D86613;fillColor=none;verticalAlign=top;align=center;fontColor=#D86613;dashed=1;spacingTop=25;strokeWidth=5;" parent="uiIYIumYD0wpSOT2Yrbh-6" vertex="1">
          <mxGeometry x="90" y="559" width="1000" height="401" as="geometry" />
        </mxCell>
        <mxCell id="uiIYIumYD0wpSOT2Yrbh-20" value="" style="rounded=1;arcSize=10;dashed=1;fillColor=none;gradientColor=none;dashPattern=8 3 1 3;strokeWidth=3;strokeColor=light-dark(#000000,#000000);" parent="uiIYIumYD0wpSOT2Yrbh-19" vertex="1">
          <mxGeometry x="30" y="60" width="840" height="310" as="geometry" />
        </mxCell>
        <mxCell id="uiIYIumYD0wpSOT2Yrbh-21" value="&lt;b&gt;&lt;font style=&quot;color: light-dark(rgb(0, 0, 0), rgb(0, 0, 0));&quot;&gt;Maximum Size&lt;/font&gt;&lt;/b&gt;" style="text;html=1;align=center;verticalAlign=middle;whiteSpace=wrap;rounded=0;" parent="uiIYIumYD0wpSOT2Yrbh-19" vertex="1">
          <mxGeometry x="40" y="67" width="120" height="30" as="geometry" />
        </mxCell>
        <mxCell id="uiIYIumYD0wpSOT2Yrbh-22" value="" style="rounded=1;arcSize=10;dashed=1;fillColor=none;gradientColor=none;dashPattern=8 3 1 3;strokeWidth=3;strokeColor=light-dark(#000000,#000000);" parent="uiIYIumYD0wpSOT2Yrbh-19" vertex="1">
          <mxGeometry x="60" y="97" width="460" height="243" as="geometry" />
        </mxCell>
        <mxCell id="uiIYIumYD0wpSOT2Yrbh-23" value="&lt;b&gt;&lt;font style=&quot;color: light-dark(rgb(0, 0, 0), rgb(0, 0, 0));&quot;&gt;Desired Capacity&lt;/font&gt;&lt;/b&gt;" style="text;html=1;align=center;verticalAlign=middle;whiteSpace=wrap;rounded=0;" parent="uiIYIumYD0wpSOT2Yrbh-19" vertex="1">
          <mxGeometry x="61" y="104" width="120" height="30" as="geometry" />
        </mxCell>
        <mxCell id="uiIYIumYD0wpSOT2Yrbh-24" value="" style="rounded=1;arcSize=10;dashed=1;fillColor=none;gradientColor=none;dashPattern=8 3 1 3;strokeWidth=3;strokeColor=light-dark(#000000,#000000);" parent="uiIYIumYD0wpSOT2Yrbh-19" vertex="1">
          <mxGeometry x="80" y="140" width="250" height="180" as="geometry" />
        </mxCell>
        <mxCell id="uiIYIumYD0wpSOT2Yrbh-25" value="&lt;b&gt;&lt;font style=&quot;color: light-dark(rgb(0, 0, 0), rgb(0, 0, 0));&quot;&gt;Minimum Size&lt;/font&gt;&lt;/b&gt;" style="text;html=1;align=center;verticalAlign=middle;whiteSpace=wrap;rounded=0;" parent="uiIYIumYD0wpSOT2Yrbh-19" vertex="1">
          <mxGeometry x="81" y="130" width="119" height="40" as="geometry" />
        </mxCell>
        <mxCell id="s7rwSZ8jp9jkRBCQgTsZ-1" value="" style="sketch=0;points=[[0,0,0],[0.25,0,0],[0.5,0,0],[0.75,0,0],[1,0,0],[0,1,0],[0.25,1,0],[0.5,1,0],[0.75,1,0],[1,1,0],[0,0.25,0],[0,0.5,0],[0,0.75,0],[1,0.25,0],[1,0.5,0],[1,0.75,0]];outlineConnect=0;fontColor=#232F3E;fillColor=#ED7100;strokeColor=light-dark(#FFFFFF,#FFFFFF);dashed=0;verticalLabelPosition=bottom;verticalAlign=top;align=center;html=1;fontSize=12;fontStyle=0;aspect=fixed;shape=mxgraph.aws4.resourceIcon;resIcon=mxgraph.aws4.ec2;" parent="uiIYIumYD0wpSOT2Yrbh-19" vertex="1">
          <mxGeometry x="131" y="188" width="114" height="114" as="geometry" />
        </mxCell>
        <mxCell id="s7rwSZ8jp9jkRBCQgTsZ-2" value="" style="sketch=0;points=[[0,0,0],[0.25,0,0],[0.5,0,0],[0.75,0,0],[1,0,0],[0,1,0],[0.25,1,0],[0.5,1,0],[0.75,1,0],[1,1,0],[0,0.25,0],[0,0.5,0],[0,0.75,0],[1,0.25,0],[1,0.5,0],[1,0.75,0]];outlineConnect=0;fontColor=#232F3E;fillColor=#ED7100;strokeColor=light-dark(#FFFFFF,#FFFFFF);dashed=0;verticalLabelPosition=bottom;verticalAlign=top;align=center;html=1;fontSize=12;fontStyle=0;aspect=fixed;shape=mxgraph.aws4.resourceIcon;resIcon=mxgraph.aws4.ec2;" parent="uiIYIumYD0wpSOT2Yrbh-19" vertex="1">
          <mxGeometry x="360" y="188" width="114" height="114" as="geometry" />
        </mxCell>
        <mxCell id="s7rwSZ8jp9jkRBCQgTsZ-3" value="" style="sketch=0;points=[[0,0,0],[0.25,0,0],[0.5,0,0],[0.75,0,0],[1,0,0],[0,1,0],[0.25,1,0],[0.5,1,0],[0.75,1,0],[1,1,0],[0,0.25,0],[0,0.5,0],[0,0.75,0],[1,0.25,0],[1,0.5,0],[1,0.75,0]];outlineConnect=0;fontColor=#232F3E;fillColor=#ED7100;strokeColor=light-dark(#FFFFFF,#FFFFFF);dashed=0;verticalLabelPosition=bottom;verticalAlign=top;align=center;html=1;fontSize=12;fontStyle=0;aspect=fixed;shape=mxgraph.aws4.resourceIcon;resIcon=mxgraph.aws4.ec2;opacity=70;" parent="uiIYIumYD0wpSOT2Yrbh-19" vertex="1">
          <mxGeometry x="550" y="188" width="114" height="114" as="geometry" />
        </mxCell>
        <mxCell id="s7rwSZ8jp9jkRBCQgTsZ-4" value="" style="sketch=0;points=[[0,0,0],[0.25,0,0],[0.5,0,0],[0.75,0,0],[1,0,0],[0,1,0],[0.25,1,0],[0.5,1,0],[0.75,1,0],[1,1,0],[0,0.25,0],[0,0.5,0],[0,0.75,0],[1,0.25,0],[1,0.5,0],[1,0.75,0]];outlineConnect=0;fontColor=#232F3E;fillColor=#ED7100;strokeColor=light-dark(#FFFFFF,#FFFFFF);dashed=0;verticalLabelPosition=bottom;verticalAlign=top;align=center;html=1;fontSize=12;fontStyle=0;aspect=fixed;shape=mxgraph.aws4.resourceIcon;resIcon=mxgraph.aws4.ec2;opacity=70;" parent="uiIYIumYD0wpSOT2Yrbh-19" vertex="1">
          <mxGeometry x="710" y="188" width="114" height="114" as="geometry" />
        </mxCell>
        <mxCell id="s7rwSZ8jp9jkRBCQgTsZ-5" value="&lt;b&gt;&lt;font style=&quot;font-size: 20px;&quot;&gt;DB Subnet Group&lt;/font&gt;&lt;/b&gt;" style="outlineConnect=0;gradientColor=none;html=1;whiteSpace=wrap;fontSize=12;fontStyle=0;strokeColor=#858B94;fillColor=none;verticalAlign=top;align=center;fontColor=#858B94;dashed=1;spacingTop=3;strokeWidth=5;" parent="uiIYIumYD0wpSOT2Yrbh-6" vertex="1">
          <mxGeometry x="80" y="989" width="1010" height="351" as="geometry" />
        </mxCell>
        <mxCell id="s7rwSZ8jp9jkRBCQgTsZ-7" value="" style="sketch=0;outlineConnect=0;fontColor=#232F3E;gradientColor=none;fillColor=#7AA116;strokeColor=none;dashed=0;verticalLabelPosition=bottom;verticalAlign=top;align=center;html=1;fontSize=12;fontStyle=0;aspect=fixed;pointerEvents=1;shape=mxgraph.aws4.bucket_with_objects;" parent="uiIYIumYD0wpSOT2Yrbh-6" vertex="1">
          <mxGeometry x="490" y="1449" width="245" height="254.8" as="geometry" />
        </mxCell>
        <mxCell id="s7rwSZ8jp9jkRBCQgTsZ-8" value="" style="sketch=0;points=[[0,0,0],[0.25,0,0],[0.5,0,0],[0.75,0,0],[1,0,0],[0,1,0],[0.25,1,0],[0.5,1,0],[0.75,1,0],[1,1,0],[0,0.25,0],[0,0.5,0],[0,0.75,0],[1,0.25,0],[1,0.5,0],[1,0.75,0]];outlineConnect=0;fontColor=#232F3E;fillColor=light-dark(#4865E5,#4865E5);strokeColor=light-dark(#FFFFFF,#FFFFFF);dashed=0;verticalLabelPosition=bottom;verticalAlign=top;align=center;html=1;fontSize=12;fontStyle=0;aspect=fixed;shape=mxgraph.aws4.resourceIcon;resIcon=mxgraph.aws4.rds;" parent="uiIYIumYD0wpSOT2Yrbh-6" vertex="1">
          <mxGeometry x="512.25" y="1060.75" width="185.5" height="185.5" as="geometry" />
        </mxCell>
        <mxCell id="s7rwSZ8jp9jkRBCQgTsZ-9" value="&lt;b style=&quot;&quot;&gt;&lt;font style=&quot;color: light-dark(rgb(25, 36, 81), rgb(25, 36, 81));&quot;&gt;RDS MYSQL(PRIMARY)&lt;/font&gt;&lt;/b&gt;" style="text;html=1;align=center;verticalAlign=middle;whiteSpace=wrap;rounded=0;" parent="uiIYIumYD0wpSOT2Yrbh-6" vertex="1">
          <mxGeometry x="540" y="1028.5" width="120" height="30" as="geometry" />
        </mxCell>
        <mxCell id="uiIYIumYD0wpSOT2Yrbh-11" value="" style="sketch=0;outlineConnect=0;fontColor=#232F3E;gradientColor=none;fillColor=#8C4FFF;strokeColor=none;dashed=0;verticalLabelPosition=bottom;verticalAlign=top;align=center;html=1;fontSize=12;fontStyle=0;aspect=fixed;pointerEvents=1;shape=mxgraph.aws4.application_load_balancer;" parent="uiIYIumYD0wpSOT2Yrbh-6" vertex="1">
          <mxGeometry x="490" y="229" width="220" height="220" as="geometry" />
        </mxCell>
        <mxCell id="owUy4a07HO7HYF3xLsFr-3" value="&lt;font style=&quot;color: light-dark(rgb(255, 133, 117), rgb(255, 133, 117));&quot;&gt;&lt;b&gt;ALB Secutiy Group&lt;/b&gt;&lt;/font&gt;" style="text;html=1;align=center;verticalAlign=middle;whiteSpace=wrap;rounded=0;" parent="uiIYIumYD0wpSOT2Yrbh-6" vertex="1">
          <mxGeometry x="532.75" y="445" width="120" height="30" as="geometry" />
        </mxCell>
        <mxCell id="owUy4a07HO7HYF3xLsFr-10" value="&lt;font style=&quot;color: light-dark(rgb(255, 133, 117), rgb(255, 133, 117)); font-size: 15px;&quot;&gt;&lt;b style=&quot;&quot;&gt;RDS - Secrutiy Group&lt;/b&gt;&lt;/font&gt;" style="text;html=1;align=center;verticalAlign=middle;whiteSpace=wrap;rounded=0;" parent="uiIYIumYD0wpSOT2Yrbh-6" vertex="1">
          <mxGeometry x="518.13" y="1269" width="173.75" height="30" as="geometry" />
        </mxCell>
        <mxCell id="owUy4a07HO7HYF3xLsFr-40" value="&lt;font style=&quot;color: light-dark(rgb(97, 130, 11), rgb(97, 130, 11)); font-size: 20px;&quot;&gt;&lt;b style=&quot;&quot;&gt;S3 Bucket (Primary)&lt;/b&gt;&lt;/font&gt;" style="text;html=1;align=center;verticalAlign=middle;whiteSpace=wrap;rounded=0;" parent="uiIYIumYD0wpSOT2Yrbh-6" vertex="1">
          <mxGeometry x="513.12" y="1406" width="206.88" height="30" as="geometry" />
        </mxCell>
        <mxCell id="HRETSZzPuDFT4tJ0ol7Q-27" style="edgeStyle=orthogonalEdgeStyle;rounded=0;orthogonalLoop=1;jettySize=auto;html=1;strokeColor=light-dark(#E7157B,#E7157B);strokeWidth=3;dashed=1;shape=arrow;" parent="uiIYIumYD0wpSOT2Yrbh-6" source="HRETSZzPuDFT4tJ0ol7Q-24" edge="1">
          <mxGeometry relative="1" as="geometry">
            <mxPoint x="660" y="240" as="targetPoint" />
            <Array as="points">
              <mxPoint x="1251" y="1330" />
              <mxPoint x="650" y="1330" />
              <mxPoint x="650" y="240" />
            </Array>
          </mxGeometry>
        </mxCell>
        <mxCell id="HRETSZzPuDFT4tJ0ol7Q-28" value="" style="group" parent="uiIYIumYD0wpSOT2Yrbh-6" vertex="1" connectable="0">
          <mxGeometry x="1086" y="44" width="350" height="159" as="geometry" />
        </mxCell>
        <mxCell id="HRETSZzPuDFT4tJ0ol7Q-24" value="" style="sketch=0;outlineConnect=0;fontColor=#232F3E;gradientColor=none;fillColor=light-dark(#000000,#E7157B);strokeColor=none;dashed=0;verticalLabelPosition=bottom;verticalAlign=top;align=center;html=1;fontSize=12;fontStyle=0;aspect=fixed;pointerEvents=1;shape=mxgraph.aws4.alarm;" parent="HRETSZzPuDFT4tJ0ol7Q-28" vertex="1">
          <mxGeometry x="110" width="110" height="110" as="geometry" />
        </mxCell>
        <mxCell id="HRETSZzPuDFT4tJ0ol7Q-25" value="&lt;font style=&quot;font-size: 20px; color: light-dark(rgb(231, 21, 123), rgb(231, 21, 123));&quot;&gt;&lt;b style=&quot;&quot;&gt;ALB Unhealthy(Alarm)&lt;/b&gt;&lt;/font&gt;&lt;div&gt;&lt;font style=&quot;font-size: 20px; color: light-dark(rgb(231, 21, 123), rgb(231, 21, 123));&quot;&gt;&lt;b style=&quot;&quot;&gt;&lt;br&gt;&lt;/b&gt;&lt;/font&gt;&lt;/div&gt;" style="text;html=1;align=center;verticalAlign=middle;whiteSpace=wrap;rounded=0;" parent="HRETSZzPuDFT4tJ0ol7Q-28" vertex="1">
          <mxGeometry y="129" width="350" height="30" as="geometry" />
        </mxCell>
        <mxCell id="HRETSZzPuDFT4tJ0ol7Q-29" value="" style="group" parent="uiIYIumYD0wpSOT2Yrbh-6" vertex="1" connectable="0">
          <mxGeometry x="1120" y="1299" width="350" height="159" as="geometry" />
        </mxCell>
        <mxCell id="HRETSZzPuDFT4tJ0ol7Q-32" value="" style="edgeStyle=orthogonalEdgeStyle;rounded=0;orthogonalLoop=1;jettySize=auto;html=1;" parent="HRETSZzPuDFT4tJ0ol7Q-29" source="HRETSZzPuDFT4tJ0ol7Q-30" target="HRETSZzPuDFT4tJ0ol7Q-31" edge="1">
          <mxGeometry relative="1" as="geometry" />
        </mxCell>
        <mxCell id="HRETSZzPuDFT4tJ0ol7Q-30" value="" style="sketch=0;outlineConnect=0;fontColor=#232F3E;gradientColor=none;fillColor=light-dark(#000000,#E7157B);strokeColor=none;dashed=0;verticalLabelPosition=bottom;verticalAlign=top;align=center;html=1;fontSize=12;fontStyle=0;aspect=fixed;pointerEvents=1;shape=mxgraph.aws4.alarm;" parent="HRETSZzPuDFT4tJ0ol7Q-29" vertex="1">
          <mxGeometry x="110" width="110" height="110" as="geometry" />
        </mxCell>
        <mxCell id="HRETSZzPuDFT4tJ0ol7Q-31" value="&lt;font style=&quot;font-size: 20px; color: light-dark(rgb(231, 21, 123), rgb(231, 21, 123));&quot;&gt;&lt;b style=&quot;&quot;&gt;RDS Unavailable(Alarm)&lt;/b&gt;&lt;/font&gt;" style="text;html=1;align=center;verticalAlign=middle;whiteSpace=wrap;rounded=0;" parent="HRETSZzPuDFT4tJ0ol7Q-29" vertex="1">
          <mxGeometry y="129" width="350" height="30" as="geometry" />
        </mxCell>
        <mxCell id="HRETSZzPuDFT4tJ0ol7Q-35" style="edgeStyle=orthogonalEdgeStyle;rounded=0;orthogonalLoop=1;jettySize=auto;html=1;strokeColor=light-dark(#E7157B,#E7157B);strokeWidth=3;dashed=1;shape=arrow;exitX=0.436;exitY=0.552;exitDx=0;exitDy=0;exitPerimeter=0;" parent="uiIYIumYD0wpSOT2Yrbh-6" source="HRETSZzPuDFT4tJ0ol7Q-30" edge="1">
          <mxGeometry relative="1" as="geometry">
            <mxPoint x="1215.89" y="1095.94" as="sourcePoint" />
            <mxPoint x="679.89" y="1210.94" as="targetPoint" />
            <Array as="points">
              <mxPoint x="1295" y="1360" />
              <mxPoint x="1295" y="1096" />
              <mxPoint x="670" y="1096" />
              <mxPoint x="670" y="1211" />
            </Array>
          </mxGeometry>
        </mxCell>
        <mxCell id="HRETSZzPuDFT4tJ0ol7Q-37" style="edgeStyle=orthogonalEdgeStyle;rounded=0;orthogonalLoop=1;jettySize=auto;html=1;exitX=1;exitY=1;exitDx=0;exitDy=0;exitPerimeter=0;" parent="uiIYIumYD0wpSOT2Yrbh-6" source="HRETSZzPuDFT4tJ0ol7Q-36" target="uiIYIumYD0wpSOT2Yrbh-6" edge="1">
          <mxGeometry relative="1" as="geometry" />
        </mxCell>
        <mxCell id="HRETSZzPuDFT4tJ0ol7Q-38" style="edgeStyle=orthogonalEdgeStyle;rounded=0;orthogonalLoop=1;jettySize=auto;html=1;strokeWidth=3;strokeColor=light-dark(#E7157B,#E7157B);startArrow=classic;startFill=0;endArrow=none;dashed=1;" parent="uiIYIumYD0wpSOT2Yrbh-6" source="HRETSZzPuDFT4tJ0ol7Q-36" target="HRETSZzPuDFT4tJ0ol7Q-30" edge="1">
          <mxGeometry relative="1" as="geometry" />
        </mxCell>
        <mxCell id="HRETSZzPuDFT4tJ0ol7Q-36" value="" style="sketch=0;points=[[0,0,0],[0.25,0,0],[0.5,0,0],[0.75,0,0],[1,0,0],[0,1,0],[0.25,1,0],[0.5,1,0],[0.75,1,0],[1,1,0],[0,0.25,0],[0,0.5,0],[0,0.75,0],[1,0.25,0],[1,0.5,0],[1,0.75,0]];outlineConnect=0;fontColor=#232F3E;fillColor=light-dark(#E7157B,#E7157B);strokeColor=light-dark(#FFFFFF,#FFFFFF);dashed=0;verticalLabelPosition=bottom;verticalAlign=top;align=center;html=1;fontSize=12;fontStyle=0;aspect=fixed;shape=mxgraph.aws4.resourceIcon;resIcon=mxgraph.aws4.sns;" parent="uiIYIumYD0wpSOT2Yrbh-6" vertex="1">
          <mxGeometry x="1270" y="815" width="130" height="130" as="geometry" />
        </mxCell>
        <mxCell id="HRETSZzPuDFT4tJ0ol7Q-39" style="edgeStyle=orthogonalEdgeStyle;rounded=0;orthogonalLoop=1;jettySize=auto;html=1;strokeWidth=3;strokeColor=light-dark(#E7157B,#E7157B);dashed=1;" parent="uiIYIumYD0wpSOT2Yrbh-6" source="HRETSZzPuDFT4tJ0ol7Q-24" target="HRETSZzPuDFT4tJ0ol7Q-36" edge="1">
          <mxGeometry relative="1" as="geometry" />
        </mxCell>
        <mxCell id="HRETSZzPuDFT4tJ0ol7Q-40" value="&lt;font style=&quot;font-size: 20px; color: light-dark(rgb(231, 21, 123), rgb(231, 21, 123));&quot;&gt;&lt;b style=&quot;&quot;&gt;SNS Topic&lt;/b&gt;&lt;/font&gt;" style="text;html=1;align=center;verticalAlign=middle;whiteSpace=wrap;rounded=0;" parent="uiIYIumYD0wpSOT2Yrbh-6" vertex="1">
          <mxGeometry x="1168" y="956" width="350" height="30" as="geometry" />
        </mxCell>
        <mxCell id="uiIYIumYD0wpSOT2Yrbh-12" style="edgeStyle=orthogonalEdgeStyle;rounded=0;orthogonalLoop=1;jettySize=auto;html=1;strokeWidth=7;strokeColor=light-dark(#000000,#000000);" parent="1" source="uiIYIumYD0wpSOT2Yrbh-2" target="uiIYIumYD0wpSOT2Yrbh-11" edge="1">
          <mxGeometry relative="1" as="geometry" />
        </mxCell>
        <mxCell id="owUy4a07HO7HYF3xLsFr-11" value="&lt;b&gt;&lt;font style=&quot;font-size: 20px; color: light-dark(rgb(55, 118, 144), rgb(55, 118, 144));&quot;&gt;Region - eu-west-1 (Ireland)&lt;/font&gt;&lt;/b&gt;" style="points=[[0,0],[0.25,0],[0.5,0],[0.75,0],[1,0],[1,0.25],[1,0.5],[1,0.75],[1,1],[0.75,1],[0.5,1],[0.25,1],[0,1],[0,0.75],[0,0.5],[0,0.25]];outlineConnect=0;gradientColor=none;html=1;whiteSpace=wrap;fontSize=12;fontStyle=0;container=1;pointerEvents=0;collapsible=0;recursiveResize=0;shape=mxgraph.aws4.group;grIcon=mxgraph.aws4.group_region;strokeColor=light-dark(#377690,#377690);fillColor=none;verticalAlign=top;align=left;spacingLeft=30;fontColor=#147EBA;dashed=1;strokeWidth=7;" parent="1" vertex="1">
          <mxGeometry x="1810" y="350" width="1470" height="1860" as="geometry" />
        </mxCell>
        <mxCell id="owUy4a07HO7HYF3xLsFr-12" value="&lt;b&gt;&lt;font style=&quot;font-size: 20px; color: light-dark(rgb(0, 0, 0), rgb(177, 125, 255));&quot;&gt;VPC&lt;/font&gt;&lt;/b&gt;" style="points=[[0,0],[0.25,0],[0.5,0],[0.75,0],[1,0],[1,0.25],[1,0.5],[1,0.75],[1,1],[0.75,1],[0.5,1],[0.25,1],[0,1],[0,0.75],[0,0.5],[0,0.25]];outlineConnect=0;gradientColor=none;html=1;whiteSpace=wrap;fontSize=12;fontStyle=0;container=1;pointerEvents=0;collapsible=0;recursiveResize=0;shape=mxgraph.aws4.group;grIcon=mxgraph.aws4.group_vpc2;strokeColor=#8C4FFF;fillColor=none;verticalAlign=top;align=left;spacingLeft=30;fontColor=#AAB7B8;dashed=0;strokeWidth=7;" parent="owUy4a07HO7HYF3xLsFr-11" vertex="1">
          <mxGeometry x="218" y="50" width="1200" height="1760" as="geometry" />
        </mxCell>
        <mxCell id="owUy4a07HO7HYF3xLsFr-14" value="&lt;b&gt;&lt;font style=&quot;font-size: 20px;&quot;&gt;Public subnet&lt;/font&gt;&lt;/b&gt;" style="points=[[0,0],[0.25,0],[0.5,0],[0.75,0],[1,0],[1,0.25],[1,0.5],[1,0.75],[1,1],[0.75,1],[0.5,1],[0.25,1],[0,1],[0,0.75],[0,0.5],[0,0.25]];outlineConnect=0;gradientColor=none;html=1;whiteSpace=wrap;fontSize=12;fontStyle=0;container=1;pointerEvents=0;collapsible=0;recursiveResize=0;shape=mxgraph.aws4.group;grIcon=mxgraph.aws4.group_security_group;grStroke=0;strokeColor=#7AA116;fillColor=light-dark(#AAFFAA,#AAFFAA);verticalAlign=top;align=left;spacingLeft=30;fontColor=#248814;dashed=0;opacity=80;" parent="owUy4a07HO7HYF3xLsFr-12" vertex="1">
          <mxGeometry x="60" y="85" width="1060" height="405" as="geometry" />
        </mxCell>
        <mxCell id="owUy4a07HO7HYF3xLsFr-13" value="&lt;b style=&quot;forced-color-adjust: none; font-family: Helvetica; font-size: 12px; font-style: normal; font-variant-ligatures: normal; font-variant-caps: normal; letter-spacing: normal; orphans: 2; text-align: left; text-indent: 0px; text-transform: none; widows: 2; word-spacing: 0px; -webkit-text-stroke-width: 0px; white-space: normal; text-decoration-thickness: initial; text-decoration-style: initial; text-decoration-color: initial; cursor: crosshair !important; box-shadow: none !important;&quot;&gt;&lt;font style=&quot;forced-color-adjust: none; font-size: 20px; color: light-dark(rgb(52, 156, 214), rgb(52, 156, 214)); cursor: crosshair !important; box-shadow: none !important;&quot;&gt;Availability Zone (eu-west-1a)&lt;/font&gt;&lt;/b&gt;" style="fillColor=none;strokeColor=#147EBA;dashed=1;verticalAlign=top;fontStyle=0;fontColor=#147EBA;whiteSpace=wrap;html=1;strokeWidth=7;" parent="owUy4a07HO7HYF3xLsFr-12" vertex="1">
          <mxGeometry x="28" y="45" width="1120" height="1335" as="geometry" />
        </mxCell>
        <mxCell id="owUy4a07HO7HYF3xLsFr-15" value="&lt;b&gt;&lt;font style=&quot;font-size: 20px;&quot;&gt;Private subnet&lt;/font&gt;&lt;/b&gt;" style="points=[[0,0],[0.25,0],[0.5,0],[0.75,0],[1,0],[1,0.25],[1,0.5],[1,0.75],[1,1],[0.75,1],[0.5,1],[0.25,1],[0,1],[0,0.75],[0,0.5],[0,0.25]];outlineConnect=0;gradientColor=none;html=1;whiteSpace=wrap;fontSize=12;fontStyle=0;container=1;pointerEvents=0;collapsible=0;recursiveResize=0;shape=mxgraph.aws4.group;grIcon=mxgraph.aws4.group_security_group;grStroke=0;strokeColor=light-dark(#3399FF,#3399FF);fillColor=light-dark(#E6F6F7,#3399FF);verticalAlign=top;align=left;spacingLeft=30;fontColor=#147EBA;dashed=0;opacity=40;strokeWidth=7;" parent="owUy4a07HO7HYF3xLsFr-12" vertex="1">
          <mxGeometry x="60" y="509" width="1060" height="851" as="geometry" />
        </mxCell>
        <mxCell id="owUy4a07HO7HYF3xLsFr-16" value="&lt;font style=&quot;font-size: 22px;&quot;&gt;Auto Scaling group&lt;/font&gt;" style="points=[[0,0],[0.25,0],[0.5,0],[0.75,0],[1,0],[1,0.25],[1,0.5],[1,0.75],[1,1],[0.75,1],[0.5,1],[0.25,1],[0,1],[0,0.75],[0,0.5],[0,0.25]];outlineConnect=0;gradientColor=none;html=1;whiteSpace=wrap;fontSize=12;fontStyle=0;container=1;pointerEvents=0;collapsible=0;recursiveResize=0;shape=mxgraph.aws4.groupCenter;grIcon=mxgraph.aws4.group_auto_scaling_group;grStroke=1;strokeColor=#D86613;fillColor=none;verticalAlign=top;align=center;fontColor=#D86613;dashed=1;spacingTop=25;strokeWidth=5;" parent="owUy4a07HO7HYF3xLsFr-12" vertex="1">
          <mxGeometry x="90" y="559" width="1000" height="401" as="geometry" />
        </mxCell>
        <mxCell id="owUy4a07HO7HYF3xLsFr-27" value="&lt;b&gt;EC2 -Security group&lt;/b&gt;" style="fillColor=none;strokeColor=#DD3522;verticalAlign=top;fontStyle=0;fontColor=#DD3522;whiteSpace=wrap;html=1;strokeWidth=3;dashed=1;" parent="owUy4a07HO7HYF3xLsFr-16" vertex="1">
          <mxGeometry x="100" y="160" width="750" height="150" as="geometry" />
        </mxCell>
        <mxCell id="owUy4a07HO7HYF3xLsFr-17" value="" style="rounded=1;arcSize=10;dashed=1;fillColor=none;gradientColor=none;dashPattern=8 3 1 3;strokeWidth=3;strokeColor=light-dark(#000000,#000000);" parent="owUy4a07HO7HYF3xLsFr-16" vertex="1">
          <mxGeometry x="30" y="60" width="840" height="310" as="geometry" />
        </mxCell>
        <mxCell id="owUy4a07HO7HYF3xLsFr-18" value="&lt;b&gt;&lt;font style=&quot;color: light-dark(rgb(0, 0, 0), rgb(0, 0, 0));&quot;&gt;Maximum Size&lt;/font&gt;&lt;/b&gt;" style="text;html=1;align=center;verticalAlign=middle;whiteSpace=wrap;rounded=0;" parent="owUy4a07HO7HYF3xLsFr-16" vertex="1">
          <mxGeometry x="40" y="67" width="120" height="30" as="geometry" />
        </mxCell>
        <mxCell id="owUy4a07HO7HYF3xLsFr-19" value="" style="rounded=1;arcSize=10;dashed=1;fillColor=none;gradientColor=none;dashPattern=8 3 1 3;strokeWidth=3;strokeColor=light-dark(#000000,#000000);" parent="owUy4a07HO7HYF3xLsFr-16" vertex="1">
          <mxGeometry x="60" y="97" width="460" height="243" as="geometry" />
        </mxCell>
        <mxCell id="owUy4a07HO7HYF3xLsFr-20" value="&lt;b&gt;&lt;font style=&quot;color: light-dark(rgb(0, 0, 0), rgb(0, 0, 0));&quot;&gt;Desired Capacity&lt;/font&gt;&lt;/b&gt;" style="text;html=1;align=center;verticalAlign=middle;whiteSpace=wrap;rounded=0;" parent="owUy4a07HO7HYF3xLsFr-16" vertex="1">
          <mxGeometry x="61" y="104" width="120" height="30" as="geometry" />
        </mxCell>
        <mxCell id="owUy4a07HO7HYF3xLsFr-21" value="" style="rounded=1;arcSize=10;dashed=1;fillColor=none;gradientColor=none;dashPattern=8 3 1 3;strokeWidth=3;strokeColor=light-dark(#000000,#000000);" parent="owUy4a07HO7HYF3xLsFr-16" vertex="1">
          <mxGeometry x="80" y="140" width="250" height="180" as="geometry" />
        </mxCell>
        <mxCell id="owUy4a07HO7HYF3xLsFr-22" value="&lt;b&gt;&lt;font style=&quot;color: light-dark(rgb(0, 0, 0), rgb(0, 0, 0));&quot;&gt;Minimum Size&lt;/font&gt;&lt;/b&gt;" style="text;html=1;align=center;verticalAlign=middle;whiteSpace=wrap;rounded=0;" parent="owUy4a07HO7HYF3xLsFr-16" vertex="1">
          <mxGeometry x="81" y="130" width="119" height="40" as="geometry" />
        </mxCell>
        <mxCell id="owUy4a07HO7HYF3xLsFr-23" value="" style="sketch=0;points=[[0,0,0],[0.25,0,0],[0.5,0,0],[0.75,0,0],[1,0,0],[0,1,0],[0.25,1,0],[0.5,1,0],[0.75,1,0],[1,1,0],[0,0.25,0],[0,0.5,0],[0,0.75,0],[1,0.25,0],[1,0.5,0],[1,0.75,0]];outlineConnect=0;fontColor=#232F3E;fillColor=#ED7100;strokeColor=light-dark(#FFFFFF,#FFFFFF);dashed=0;verticalLabelPosition=bottom;verticalAlign=top;align=center;html=1;fontSize=12;fontStyle=0;aspect=fixed;shape=mxgraph.aws4.resourceIcon;resIcon=mxgraph.aws4.ec2;opacity=80;" parent="owUy4a07HO7HYF3xLsFr-16" vertex="1">
          <mxGeometry x="131" y="188" width="114" height="114" as="geometry" />
        </mxCell>
        <mxCell id="owUy4a07HO7HYF3xLsFr-24" value="" style="sketch=0;points=[[0,0,0],[0.25,0,0],[0.5,0,0],[0.75,0,0],[1,0,0],[0,1,0],[0.25,1,0],[0.5,1,0],[0.75,1,0],[1,1,0],[0,0.25,0],[0,0.5,0],[0,0.75,0],[1,0.25,0],[1,0.5,0],[1,0.75,0]];outlineConnect=0;fontColor=#232F3E;fillColor=#ED7100;strokeColor=light-dark(#FFFFFF,#FFFFFF);dashed=0;verticalLabelPosition=bottom;verticalAlign=top;align=center;html=1;fontSize=12;fontStyle=0;aspect=fixed;shape=mxgraph.aws4.resourceIcon;resIcon=mxgraph.aws4.ec2;opacity=80;" parent="owUy4a07HO7HYF3xLsFr-16" vertex="1">
          <mxGeometry x="360" y="188" width="114" height="114" as="geometry" />
        </mxCell>
        <mxCell id="owUy4a07HO7HYF3xLsFr-25" value="" style="sketch=0;points=[[0,0,0],[0.25,0,0],[0.5,0,0],[0.75,0,0],[1,0,0],[0,1,0],[0.25,1,0],[0.5,1,0],[0.75,1,0],[1,1,0],[0,0.25,0],[0,0.5,0],[0,0.75,0],[1,0.25,0],[1,0.5,0],[1,0.75,0]];outlineConnect=0;fontColor=#232F3E;fillColor=#ED7100;strokeColor=light-dark(#FFFFFF,#FFFFFF);dashed=0;verticalLabelPosition=bottom;verticalAlign=top;align=center;html=1;fontSize=12;fontStyle=0;aspect=fixed;shape=mxgraph.aws4.resourceIcon;resIcon=mxgraph.aws4.ec2;opacity=70;" parent="owUy4a07HO7HYF3xLsFr-16" vertex="1">
          <mxGeometry x="550" y="188" width="114" height="114" as="geometry" />
        </mxCell>
        <mxCell id="owUy4a07HO7HYF3xLsFr-26" value="" style="sketch=0;points=[[0,0,0],[0.25,0,0],[0.5,0,0],[0.75,0,0],[1,0,0],[0,1,0],[0.25,1,0],[0.5,1,0],[0.75,1,0],[1,1,0],[0,0.25,0],[0,0.5,0],[0,0.75,0],[1,0.25,0],[1,0.5,0],[1,0.75,0]];outlineConnect=0;fontColor=#232F3E;fillColor=#ED7100;strokeColor=light-dark(#FFFFFF,#FFFFFF);dashed=0;verticalLabelPosition=bottom;verticalAlign=top;align=center;html=1;fontSize=12;fontStyle=0;aspect=fixed;shape=mxgraph.aws4.resourceIcon;resIcon=mxgraph.aws4.ec2;opacity=70;" parent="owUy4a07HO7HYF3xLsFr-16" vertex="1">
          <mxGeometry x="710" y="188" width="114" height="114" as="geometry" />
        </mxCell>
        <mxCell id="owUy4a07HO7HYF3xLsFr-28" value="&lt;b&gt;&lt;font style=&quot;font-size: 20px;&quot;&gt;DB Subnet Group&lt;/font&gt;&lt;/b&gt;" style="outlineConnect=0;gradientColor=none;html=1;whiteSpace=wrap;fontSize=12;fontStyle=0;strokeColor=#858B94;fillColor=none;verticalAlign=top;align=center;fontColor=#858B94;dashed=1;spacingTop=3;strokeWidth=5;" parent="owUy4a07HO7HYF3xLsFr-12" vertex="1">
          <mxGeometry x="80" y="989" width="1010" height="351" as="geometry" />
        </mxCell>
        <mxCell id="owUy4a07HO7HYF3xLsFr-29" value="" style="sketch=0;outlineConnect=0;fontColor=#232F3E;gradientColor=none;fillColor=#7AA116;strokeColor=none;dashed=0;verticalLabelPosition=bottom;verticalAlign=top;align=center;html=1;fontSize=12;fontStyle=0;aspect=fixed;pointerEvents=1;shape=mxgraph.aws4.bucket_with_objects;" parent="owUy4a07HO7HYF3xLsFr-12" vertex="1">
          <mxGeometry x="490" y="1478" width="245" height="254.8" as="geometry" />
        </mxCell>
        <mxCell id="owUy4a07HO7HYF3xLsFr-30" value="" style="sketch=0;points=[[0,0,0],[0.25,0,0],[0.5,0,0],[0.75,0,0],[1,0,0],[0,1,0],[0.25,1,0],[0.5,1,0],[0.75,1,0],[1,1,0],[0,0.25,0],[0,0.5,0],[0,0.75,0],[1,0.25,0],[1,0.5,0],[1,0.75,0]];outlineConnect=0;fontColor=#232F3E;fillColor=light-dark(#4865E5,#4865E5);strokeColor=light-dark(#FFFFFF,#FFFFFF);dashed=0;verticalLabelPosition=bottom;verticalAlign=top;align=center;html=1;fontSize=12;fontStyle=0;aspect=fixed;shape=mxgraph.aws4.resourceIcon;resIcon=mxgraph.aws4.rds;" parent="owUy4a07HO7HYF3xLsFr-12" vertex="1">
          <mxGeometry x="512.25" y="1060.75" width="185.5" height="185.5" as="geometry" />
        </mxCell>
        <mxCell id="owUy4a07HO7HYF3xLsFr-31" value="&lt;b style=&quot;&quot;&gt;&lt;font style=&quot;color: light-dark(rgb(25, 36, 81), rgb(25, 36, 81));&quot;&gt;RDS MYSQL(PRIMARY)&lt;/font&gt;&lt;/b&gt;" style="text;html=1;align=center;verticalAlign=middle;whiteSpace=wrap;rounded=0;" parent="owUy4a07HO7HYF3xLsFr-12" vertex="1">
          <mxGeometry x="540" y="1028.5" width="120" height="30" as="geometry" />
        </mxCell>
        <mxCell id="owUy4a07HO7HYF3xLsFr-32" value="" style="sketch=0;outlineConnect=0;fontColor=#232F3E;gradientColor=none;fillColor=#8C4FFF;strokeColor=none;dashed=0;verticalLabelPosition=bottom;verticalAlign=top;align=center;html=1;fontSize=12;fontStyle=0;aspect=fixed;pointerEvents=1;shape=mxgraph.aws4.application_load_balancer;" parent="owUy4a07HO7HYF3xLsFr-12" vertex="1">
          <mxGeometry x="490" y="229" width="220" height="220" as="geometry" />
        </mxCell>
        <mxCell id="owUy4a07HO7HYF3xLsFr-33" value="&lt;font style=&quot;color: light-dark(rgb(255, 133, 117), rgb(255, 133, 117));&quot;&gt;&lt;b style=&quot;&quot;&gt;ALB Secutiy Group&lt;/b&gt;&lt;/font&gt;" style="text;html=1;align=center;verticalAlign=middle;whiteSpace=wrap;rounded=0;" parent="owUy4a07HO7HYF3xLsFr-12" vertex="1">
          <mxGeometry x="532.75" y="445" width="120" height="30" as="geometry" />
        </mxCell>
        <mxCell id="owUy4a07HO7HYF3xLsFr-35" value="" style="fillColor=none;strokeColor=#DD3522;verticalAlign=top;fontStyle=0;fontColor=#DD3522;whiteSpace=wrap;html=1;strokeWidth=3;dashed=1;" parent="owUy4a07HO7HYF3xLsFr-12" vertex="1">
          <mxGeometry x="370" y="115" width="470" height="360" as="geometry" />
        </mxCell>
        <mxCell id="owUy4a07HO7HYF3xLsFr-36" value="&lt;font style=&quot;color: light-dark(rgb(255, 133, 117), rgb(255, 133, 117)); font-size: 15px;&quot;&gt;&lt;b style=&quot;&quot;&gt;RDS - Secrutiy Group&lt;/b&gt;&lt;/font&gt;" style="text;html=1;align=center;verticalAlign=middle;whiteSpace=wrap;rounded=0;" parent="owUy4a07HO7HYF3xLsFr-12" vertex="1">
          <mxGeometry x="518.13" y="1269" width="173.75" height="30" as="geometry" />
        </mxCell>
        <mxCell id="owUy4a07HO7HYF3xLsFr-41" value="&lt;font style=&quot;color: light-dark(rgb(97, 130, 11), rgb(97, 130, 11)); font-size: 20px;&quot;&gt;&lt;b style=&quot;&quot;&gt;S3 Bucket -Replica (Secondary)&lt;/b&gt;&lt;/font&gt;" style="text;html=1;align=center;verticalAlign=middle;whiteSpace=wrap;rounded=0;" parent="owUy4a07HO7HYF3xLsFr-12" vertex="1">
          <mxGeometry x="518.1300000000001" y="1433" width="206.88" height="30" as="geometry" />
        </mxCell>
        <mxCell id="HRETSZzPuDFT4tJ0ol7Q-3" style="edgeStyle=orthogonalEdgeStyle;rounded=0;orthogonalLoop=1;jettySize=auto;html=1;exitX=0.5;exitY=0;exitDx=0;exitDy=0;" parent="owUy4a07HO7HYF3xLsFr-11" target="owUy4a07HO7HYF3xLsFr-11" edge="1">
          <mxGeometry relative="1" as="geometry">
            <mxPoint x="1360" y="90" as="sourcePoint" />
          </mxGeometry>
        </mxCell>
        <mxCell id="HRETSZzPuDFT4tJ0ol7Q-2" style="edgeStyle=orthogonalEdgeStyle;rounded=0;orthogonalLoop=1;jettySize=auto;html=1;strokeColor=light-dark(#000000,#E9690E);strokeWidth=5;dashed=1;exitX=0.796;exitY=0.871;exitDx=0;exitDy=0;exitPerimeter=0;" parent="owUy4a07HO7HYF3xLsFr-11" source="ZEAQgn_k6CVQIJqzp0HZ-3" target="ZEAQgn_k6CVQIJqzp0HZ-1" edge="1">
          <mxGeometry relative="1" as="geometry">
            <mxPoint x="100" y="184" as="sourcePoint" />
          </mxGeometry>
        </mxCell>
        <mxCell id="ZEAQgn_k6CVQIJqzp0HZ-3" value="" style="points=[];aspect=fixed;html=1;align=center;shadow=0;dashed=0;fillColor=#FF6A00;strokeColor=none;shape=mxgraph.alibaba_cloud.eventbridge;" parent="owUy4a07HO7HYF3xLsFr-11" vertex="1">
          <mxGeometry x="40" y="90" width="101" height="101" as="geometry" />
        </mxCell>
        <mxCell id="HRETSZzPuDFT4tJ0ol7Q-23" style="rounded=0;orthogonalLoop=1;jettySize=auto;html=1;strokeWidth=4;strokeColor=light-dark(#000000,#E7157B);dashed=1;" parent="owUy4a07HO7HYF3xLsFr-11" edge="1">
          <mxGeometry relative="1" as="geometry">
            <mxPoint x="109" y="570" as="sourcePoint" />
            <mxPoint x="109.10926193921841" y="816" as="targetPoint" />
          </mxGeometry>
        </mxCell>
        <mxCell id="ZEAQgn_k6CVQIJqzp0HZ-1" value="" style="sketch=0;outlineConnect=0;fontColor=#232F3E;gradientColor=none;fillColor=#ED7100;strokeColor=none;dashed=0;verticalLabelPosition=bottom;verticalAlign=top;align=center;html=1;fontSize=12;fontStyle=0;aspect=fixed;pointerEvents=1;shape=mxgraph.aws4.lambda_function;" parent="owUy4a07HO7HYF3xLsFr-11" vertex="1">
          <mxGeometry x="31" y="410" width="151" height="151" as="geometry" />
        </mxCell>
        <mxCell id="HRETSZzPuDFT4tJ0ol7Q-5" value="&lt;b&gt;&lt;font style=&quot;color: light-dark(rgb(233, 105, 14), rgb(233, 105, 14)); font-size: 15px;&quot;&gt;Eventbridge Rule&lt;/font&gt;&lt;/b&gt;" style="text;html=1;align=center;verticalAlign=middle;whiteSpace=wrap;rounded=0;" parent="owUy4a07HO7HYF3xLsFr-11" vertex="1">
          <mxGeometry x="40" y="50" width="119" height="40" as="geometry" />
        </mxCell>
        <mxCell id="HRETSZzPuDFT4tJ0ol7Q-6" value="&lt;font color=&quot;#e9690e&quot;&gt;&lt;span style=&quot;font-size: 15px;&quot;&gt;&lt;b&gt;Ping Primary ALB&lt;/b&gt;&lt;/span&gt;&lt;/font&gt;" style="text;html=1;align=center;verticalAlign=middle;whiteSpace=wrap;rounded=0;" parent="owUy4a07HO7HYF3xLsFr-11" vertex="1">
          <mxGeometry x="10" y="363" width="119" height="40" as="geometry" />
        </mxCell>
        <mxCell id="HRETSZzPuDFT4tJ0ol7Q-9" style="edgeStyle=orthogonalEdgeStyle;rounded=0;orthogonalLoop=1;jettySize=auto;html=1;strokeWidth=5;strokeColor=light-dark(#E9690E,#E9690E);dashed=1;entryX=0.5;entryY=1;entryDx=0;entryDy=0;entryPerimeter=0;" parent="owUy4a07HO7HYF3xLsFr-11" source="HRETSZzPuDFT4tJ0ol7Q-7" target="owUy4a07HO7HYF3xLsFr-30" edge="1">
          <mxGeometry relative="1" as="geometry">
            <mxPoint x="824.2222222222217" y="1357" as="targetPoint" />
          </mxGeometry>
        </mxCell>
        <mxCell id="HRETSZzPuDFT4tJ0ol7Q-22" style="edgeStyle=orthogonalEdgeStyle;rounded=0;orthogonalLoop=1;jettySize=auto;html=1;strokeWidth=4;strokeColor=light-dark(#000000,#E7157B);dashed=1;" parent="owUy4a07HO7HYF3xLsFr-11" source="HRETSZzPuDFT4tJ0ol7Q-7" target="HRETSZzPuDFT4tJ0ol7Q-17" edge="1">
          <mxGeometry relative="1" as="geometry" />
        </mxCell>
        <mxCell id="HRETSZzPuDFT4tJ0ol7Q-7" value="" style="sketch=0;outlineConnect=0;fontColor=#232F3E;gradientColor=none;fillColor=#ED7100;strokeColor=none;dashed=0;verticalLabelPosition=bottom;verticalAlign=top;align=center;html=1;fontSize=12;fontStyle=0;aspect=fixed;pointerEvents=1;shape=mxgraph.aws4.lambda_function;" parent="owUy4a07HO7HYF3xLsFr-11" vertex="1">
          <mxGeometry x="30" y="1190" width="151" height="151" as="geometry" />
        </mxCell>
        <mxCell id="HRETSZzPuDFT4tJ0ol7Q-8" value="&lt;font color=&quot;#e9690e&quot;&gt;&lt;span style=&quot;font-size: 15px;&quot;&gt;&lt;b&gt;Manual Snapshot @2am&lt;/b&gt;&lt;/span&gt;&lt;/font&gt;" style="text;html=1;align=center;verticalAlign=middle;whiteSpace=wrap;rounded=0;" parent="owUy4a07HO7HYF3xLsFr-11" vertex="1">
          <mxGeometry x="31" y="1341" width="150" height="40" as="geometry" />
        </mxCell>
        <mxCell id="HRETSZzPuDFT4tJ0ol7Q-14" style="edgeStyle=orthogonalEdgeStyle;rounded=0;orthogonalLoop=1;jettySize=auto;html=1;strokeWidth=5;strokeColor=light-dark(#E9690E,#E9690E);dashed=1;" parent="owUy4a07HO7HYF3xLsFr-11" source="HRETSZzPuDFT4tJ0ol7Q-12" target="HRETSZzPuDFT4tJ0ol7Q-7" edge="1">
          <mxGeometry relative="1" as="geometry" />
        </mxCell>
        <mxCell id="HRETSZzPuDFT4tJ0ol7Q-12" value="" style="points=[];aspect=fixed;html=1;align=center;shadow=0;dashed=0;fillColor=#FF6A00;strokeColor=none;shape=mxgraph.alibaba_cloud.eventbridge;" parent="owUy4a07HO7HYF3xLsFr-11" vertex="1">
          <mxGeometry x="58" y="1680" width="101" height="101" as="geometry" />
        </mxCell>
        <mxCell id="HRETSZzPuDFT4tJ0ol7Q-13" value="&lt;b&gt;&lt;font style=&quot;color: light-dark(rgb(233, 105, 14), rgb(233, 105, 14)); font-size: 15px;&quot;&gt;Eventbridge Rule&lt;/font&gt;&lt;/b&gt;" style="text;html=1;align=center;verticalAlign=middle;whiteSpace=wrap;rounded=0;" parent="owUy4a07HO7HYF3xLsFr-11" vertex="1">
          <mxGeometry x="58" y="1790" width="119" height="40" as="geometry" />
        </mxCell>
        <mxCell id="HRETSZzPuDFT4tJ0ol7Q-17" value="" style="sketch=0;points=[[0,0,0],[0.25,0,0],[0.5,0,0],[0.75,0,0],[1,0,0],[0,1,0],[0.25,1,0],[0.5,1,0],[0.75,1,0],[1,1,0],[0,0.25,0],[0,0.5,0],[0,0.75,0],[1,0.25,0],[1,0.5,0],[1,0.75,0]];points=[[0,0,0],[0.25,0,0],[0.5,0,0],[0.75,0,0],[1,0,0],[0,1,0],[0.25,1,0],[0.5,1,0],[0.75,1,0],[1,1,0],[0,0.25,0],[0,0.5,0],[0,0.75,0],[1,0.25,0],[1,0.5,0],[1,0.75,0]];outlineConnect=0;fontColor=#232F3E;fillColor=light-dark(#E7157B,#E7157B);strokeColor=light-dark(#FFFFFF,#FFFFFF);dashed=0;verticalLabelPosition=bottom;verticalAlign=top;align=center;html=1;fontSize=12;fontStyle=0;aspect=fixed;shape=mxgraph.aws4.resourceIcon;resIcon=mxgraph.aws4.cloudwatch_2;" parent="owUy4a07HO7HYF3xLsFr-11" vertex="1">
          <mxGeometry x="46.5" y="850" width="120" height="120" as="geometry" />
        </mxCell>
        <mxCell id="HRETSZzPuDFT4tJ0ol7Q-19" value="&lt;font style=&quot;font-size: 20px; color: light-dark(rgb(231, 21, 123), rgb(231, 21, 123));&quot;&gt;&lt;b style=&quot;&quot;&gt;Cloudwatch&lt;/b&gt;&lt;/font&gt;" style="text;html=1;align=center;verticalAlign=middle;whiteSpace=wrap;rounded=0;" parent="owUy4a07HO7HYF3xLsFr-11" vertex="1">
          <mxGeometry x="-62.5" y="817" width="350" height="30" as="geometry" />
        </mxCell>
        <mxCell id="owUy4a07HO7HYF3xLsFr-37" value="&lt;font style=&quot;font-size: 20px; color: light-dark(rgb(0, 0, 0), rgb(0, 0, 0));&quot;&gt;&lt;b&gt;Users&lt;/b&gt;&lt;/font&gt;" style="text;html=1;align=center;verticalAlign=middle;whiteSpace=wrap;rounded=0;" parent="1" vertex="1">
          <mxGeometry x="2520" y="130" width="173.75" height="30" as="geometry" />
        </mxCell>
        <mxCell id="owUy4a07HO7HYF3xLsFr-38" style="edgeStyle=orthogonalEdgeStyle;rounded=0;orthogonalLoop=1;jettySize=auto;html=1;strokeWidth=7;strokeColor=light-dark(#000000,#000000);entryX=0.5;entryY=0.319;entryDx=0;entryDy=0;entryPerimeter=0;" parent="1" source="uiIYIumYD0wpSOT2Yrbh-2" target="owUy4a07HO7HYF3xLsFr-35" edge="1">
          <mxGeometry relative="1" as="geometry">
            <mxPoint x="1750" y="171" as="sourcePoint" />
            <mxPoint x="2582" y="641" as="targetPoint" />
          </mxGeometry>
        </mxCell>
        <mxCell id="owUy4a07HO7HYF3xLsFr-39" style="edgeStyle=orthogonalEdgeStyle;rounded=0;orthogonalLoop=1;jettySize=auto;html=1;entryX=0.5;entryY=0;entryDx=0;entryDy=0;entryPerimeter=0;strokeWidth=7;strokeColor=light-dark(#000000,#000000);" parent="1" source="uiIYIumYD0wpSOT2Yrbh-1" target="uiIYIumYD0wpSOT2Yrbh-2" edge="1">
          <mxGeometry relative="1" as="geometry" />
        </mxCell>
        <mxCell id="owUy4a07HO7HYF3xLsFr-42" style="rounded=0;orthogonalLoop=1;jettySize=auto;html=1;strokeWidth=4;strokeColor=#2D7600;fillColor=#60a917;" parent="1" source="s7rwSZ8jp9jkRBCQgTsZ-7" target="owUy4a07HO7HYF3xLsFr-29" edge="1">
          <mxGeometry relative="1" as="geometry" />
        </mxCell>
        <mxCell id="owUy4a07HO7HYF3xLsFr-43" value="&lt;font style=&quot;color: light-dark(rgb(97, 130, 11), rgb(97, 130, 11)); font-size: 25px;&quot;&gt;&lt;b style=&quot;&quot;&gt;CROSS-REGION REPLICATION&lt;/b&gt;&lt;/font&gt;" style="text;html=1;align=center;verticalAlign=middle;whiteSpace=wrap;rounded=0;" parent="1" vertex="1">
          <mxGeometry x="1502" y="1930" width="350" height="30" as="geometry" />
        </mxCell>
        <mxCell id="owUy4a07HO7HYF3xLsFr-44" style="rounded=0;orthogonalLoop=1;jettySize=auto;html=1;strokeWidth=4;strokeColor=light-dark(#000000,#4865E5);entryX=0.255;entryY=0.5;entryDx=0;entryDy=0;entryPerimeter=0;" parent="1" edge="1">
          <mxGeometry relative="1" as="geometry">
            <mxPoint x="747.75" y="1569.181505107937" as="sourcePoint" />
            <mxPoint x="2547.8875000000007" y="1563" as="targetPoint" />
          </mxGeometry>
        </mxCell>
        <mxCell id="owUy4a07HO7HYF3xLsFr-45" value="&lt;font style=&quot;color: light-dark(rgb(72, 101, 229), rgb(72, 101, 229)); font-size: 25px;&quot;&gt;&lt;b style=&quot;&quot;&gt;CROSS-REGION REPLICATION&lt;/b&gt;&lt;/font&gt;" style="text;html=1;align=center;verticalAlign=middle;whiteSpace=wrap;rounded=0;" parent="1" vertex="1">
          <mxGeometry x="1491" y="1517" width="350" height="30" as="geometry" />
        </mxCell>
        <mxCell id="owUy4a07HO7HYF3xLsFr-48" style="rounded=0;orthogonalLoop=1;jettySize=auto;html=1;entryX=0.449;entryY=1.121;entryDx=0;entryDy=0;entryPerimeter=0;strokeWidth=3;strokeColor=light-dark(#FF7F93,#FF7F93);dashed=1;" parent="1" edge="1">
          <mxGeometry relative="1" as="geometry">
            <mxPoint x="1665.6118926021418" y="2128" as="sourcePoint" />
            <mxPoint x="1664.1499999999996" y="1968.63" as="targetPoint" />
          </mxGeometry>
        </mxCell>
        <mxCell id="owUy4a07HO7HYF3xLsFr-49" value="" style="group" parent="1" vertex="1" connectable="0">
          <mxGeometry x="1509" y="2128" width="350" height="120" as="geometry" />
        </mxCell>
        <mxCell id="owUy4a07HO7HYF3xLsFr-46" value="" style="sketch=0;outlineConnect=0;fontColor=#232F3E;gradientColor=none;fillColor=#DD344C;strokeColor=none;dashed=0;verticalLabelPosition=bottom;verticalAlign=top;align=center;html=1;fontSize=12;fontStyle=0;aspect=fixed;pointerEvents=1;shape=mxgraph.aws4.role;" parent="owUy4a07HO7HYF3xLsFr-49" vertex="1">
          <mxGeometry x="80" width="150" height="84.62" as="geometry" />
        </mxCell>
        <mxCell id="owUy4a07HO7HYF3xLsFr-47" value="&lt;font style=&quot;font-size: 20px; color: light-dark(rgb(255, 127, 147), rgb(255, 127, 147));&quot;&gt;&lt;b style=&quot;&quot;&gt;S3 Replication Role&lt;/b&gt;&lt;/font&gt;" style="text;html=1;align=center;verticalAlign=middle;whiteSpace=wrap;rounded=0;" parent="owUy4a07HO7HYF3xLsFr-49" vertex="1">
          <mxGeometry y="90" width="350" height="30" as="geometry" />
        </mxCell>
        <mxCell id="owUy4a07HO7HYF3xLsFr-50" value="" style="group" parent="1" vertex="1" connectable="0">
          <mxGeometry x="1490" y="1090" width="350" height="120" as="geometry" />
        </mxCell>
        <mxCell id="owUy4a07HO7HYF3xLsFr-51" value="" style="sketch=0;outlineConnect=0;fontColor=#232F3E;gradientColor=none;fillColor=#DD344C;strokeColor=none;dashed=0;verticalLabelPosition=bottom;verticalAlign=top;align=center;html=1;fontSize=12;fontStyle=0;aspect=fixed;pointerEvents=1;shape=mxgraph.aws4.role;" parent="owUy4a07HO7HYF3xLsFr-50" vertex="1">
          <mxGeometry x="80" width="150" height="84.62" as="geometry" />
        </mxCell>
        <mxCell id="owUy4a07HO7HYF3xLsFr-52" value="&lt;font style=&quot;font-size: 20px; color: light-dark(rgb(255, 127, 147), rgb(255, 127, 147));&quot;&gt;&lt;b style=&quot;&quot;&gt;EC2 Replication Role&lt;/b&gt;&lt;/font&gt;" style="text;html=1;align=center;verticalAlign=middle;whiteSpace=wrap;rounded=0;" parent="owUy4a07HO7HYF3xLsFr-50" vertex="1">
          <mxGeometry y="90" width="350" height="30" as="geometry" />
        </mxCell>
        <mxCell id="owUy4a07HO7HYF3xLsFr-53" style="edgeStyle=orthogonalEdgeStyle;rounded=0;orthogonalLoop=1;jettySize=auto;html=1;entryX=0;entryY=0.5;entryDx=0;entryDy=0;entryPerimeter=0;strokeWidth=3;strokeColor=light-dark(#FF7F93,#FF7F93);dashed=1;" parent="1" source="owUy4a07HO7HYF3xLsFr-51" target="owUy4a07HO7HYF3xLsFr-23" edge="1">
          <mxGeometry relative="1" as="geometry" />
        </mxCell>
        <mxCell id="-QxfMV5JRwSOgdj6YBc4-1" style="edgeStyle=orthogonalEdgeStyle;rounded=0;orthogonalLoop=1;jettySize=auto;html=1;strokeWidth=3;strokeColor=light-dark(#FF7F93,#FF7F93);dashed=1;entryX=1;entryY=0.5;entryDx=0;entryDy=0;entryPerimeter=0;" parent="1" source="owUy4a07HO7HYF3xLsFr-51" target="s7rwSZ8jp9jkRBCQgTsZ-4" edge="1">
          <mxGeometry relative="1" as="geometry">
            <mxPoint x="1140" y="1205" as="targetPoint" />
          </mxGeometry>
        </mxCell>
        <mxCell id="-QxfMV5JRwSOgdj6YBc4-2" value="&lt;b&gt;EC2 -Security group&lt;/b&gt;" style="fillColor=none;strokeColor=#DD3522;verticalAlign=top;fontStyle=0;fontColor=#DD3522;whiteSpace=wrap;html=1;strokeWidth=3;dashed=1;" parent="1" vertex="1">
          <mxGeometry x="390" y="1140" width="760" height="150" as="geometry" />
        </mxCell>
        <mxCell id="HRETSZzPuDFT4tJ0ol7Q-4" style="edgeStyle=orthogonalEdgeStyle;rounded=0;orthogonalLoop=1;jettySize=auto;html=1;strokeWidth=5;strokeColor=light-dark(#E9690E,#E9690E);dashed=1;" parent="1" source="ZEAQgn_k6CVQIJqzp0HZ-1" target="uiIYIumYD0wpSOT2Yrbh-11" edge="1">
          <mxGeometry relative="1" as="geometry">
            <mxPoint x="730.0699999999997" y="739.8400000000001" as="targetPoint" />
          </mxGeometry>
        </mxCell>
        <mxCell id="HRETSZzPuDFT4tJ0ol7Q-15" value="" style="fillColor=none;strokeColor=#DD3522;verticalAlign=top;fontStyle=0;fontColor=#DD3522;whiteSpace=wrap;html=1;strokeWidth=3;dashed=1;" parent="1" vertex="1">
          <mxGeometry x="2458" y="1427" width="352.5" height="280" as="geometry" />
        </mxCell>
        <mxCell id="HRETSZzPuDFT4tJ0ol7Q-41" value="" style="fillColor=none;strokeColor=#DD3522;verticalAlign=top;fontStyle=0;fontColor=#DD3522;whiteSpace=wrap;html=1;strokeWidth=3;dashed=1;" parent="1" vertex="1">
          <mxGeometry x="480" y="1447" width="352.5" height="280" as="geometry" />
        </mxCell>
        <mxCell id="FlokSWe_QwU0IFt5nSPP-1" value="&lt;b&gt;&lt;font style=&quot;color: light-dark(rgb(0, 0, 0), rgb(0, 0, 0));&quot;&gt;Global Accelerator&lt;/font&gt;&lt;/b&gt;" style="text;html=1;align=center;verticalAlign=middle;whiteSpace=wrap;rounded=0;" vertex="1" parent="1">
          <mxGeometry x="1624" y="414" width="120" height="30" as="geometry" />
        </mxCell>
      </root>
    </mxGraphModel>
  </diagram>
</mxfile>
